# xmcd
#
# Track frame offsets: 
#        182
#        24090
#        39445
#        54372
#        65292
#        93357
#        112085
#        130790
#        144957
#        168420
#
# Disc length: 2548 seconds
#
# Revision: 26
# Processed by: cddbd v1.5.2PL0 Copyright (c) Steve Scherf et al.
# Submitted via: ExactAudioCopyFreeDBPlugin 1.0
#
DISCID=7809f20a
DTITLE=Grateful Dead / American Beauty
DYEAR=1970
DGENRE=Rock & Roll
TTITLE0=Box Of Rain
TTITLE1=Friend Of The Devil
TTITLE2=Sugar Magnolia
TTITLE3=Operator
TTITLE4=Candyman
TTITLE5=Ripple
TTITLE6=Brokedown Palace
TTITLE7=Till The Morning Comes
TTITLE8=Attics Of My Life
TTITLE9=Truckin
EXTD=Billboard # 30 - Multi-Platinum\n"Truckin'" (Single) # 64\nAmeric
EXTD=an Beauty is the fifth album by the Grateful Dead. It was recorde
EXTD=d between August and September of 1970 and originally released in
EXTD= November of 1970 (see 1970 in music).\nIn 2003, the album was ra
EXTD=nked number 258 on Rolling Stone magazine's list of the 500 great
EXTD=est albums of all time. In 1991, Rolling Stone ranked American Be
EXTD=auty's album cover as the 57th best of all time.\n
EXTT0=
EXTT1=
EXTT2=
EXTT3=
EXTT4=
EXTT5=
EXTT6=
EXTT7=
EXTT8=
EXTT9=
PLAYORDER=
.
